<?xml version="1.0" standalone="no"?><svg xmlns="http://www.w3.org/2000/svg" viewBox="0 0 1440 320"><path fill="#5FCFAF" fill-opacity="1" d="M0,128L21.8,144C43.6,160,87,192,131,202.7C174.5,213,218,203,262,218.7C305.5,235,349,277,393,282.7C436.4,288,480,256,524,218.7C567.3,181,611,139,655,133.3C698.2,128,742,160,785,176C829.1,192,873,192,916,186.7C960,181,1004,171,1047,165.3C1090.9,160,1135,160,1178,138.7C1221.8,117,1265,75,1309,58.7C1352.7,43,1396,53,1418,58.7L1440,64L1440,320L1418.2,320C1396.4,320,1353,320,1309,320C1265.5,320,1222,320,1178,320C1134.5,320,1091,320,1047,320C1003.6,320,960,320,916,320C872.7,320,829,320,785,320C741.8,320,698,320,655,320C610.9,320,567,320,524,320C480,320,436,320,393,320C349.1,320,305,320,262,320C218.2,320,175,320,131,320C87.3,320,44,320,22,320L0,320Z"></path></svg>