<?xml version="1.0" standalone="no"?><svg xmlns="http://www.w3.org/2000/svg" viewBox="0 0 1440 320"><path fill="#5fcfaf" fill-opacity="1" d="M0,96L21.8,85.3C43.6,75,87,53,131,48C174.5,43,218,53,262,74.7C305.5,96,349,128,393,128C436.4,128,480,96,524,106.7C567.3,117,611,171,655,176C698.2,181,742,139,785,117.3C829.1,96,873,96,916,96C960,96,1004,96,1047,101.3C1090.9,107,1135,117,1178,133.3C1221.8,149,1265,171,1309,186.7C1352.7,203,1396,213,1418,218.7L1440,224L1440,320L1418.2,320C1396.4,320,1353,320,1309,320C1265.5,320,1222,320,1178,320C1134.5,320,1091,320,1047,320C1003.6,320,960,320,916,320C872.7,320,829,320,785,320C741.8,320,698,320,655,320C610.9,320,567,320,524,320C480,320,436,320,393,320C349.1,320,305,320,262,320C218.2,320,175,320,131,320C87.3,320,44,320,22,320L0,320Z"></path></svg>